G04*
G04 #@! TF.GenerationSoftware,Altium Limited,Altium Designer,21.3.2 (30)*
G04*
G04 Layer_Color=255*
%FSLAX44Y44*%
%MOMM*%
G71*
G04*
G04 #@! TF.SameCoordinates,63FCB1AE-FA75-410F-B4B2-0E9A8DB9BD7B*
G04*
G04*
G04 #@! TF.FilePolarity,Positive*
G04*
G01*
G75*
%ADD15R,0.9300X0.8100*%
%ADD16R,0.5600X0.6000*%
%ADD17R,4.9000X0.9000*%
%ADD18R,0.5000X2.7000*%
%ADD19R,2.6400X0.5000*%
%ADD20R,0.5000X2.0000*%
%ADD21R,3.9400X0.5000*%
%ADD22R,4.9000X0.5000*%
%ADD23R,0.5000X5.0000*%
%ADD24C,0.1940*%
%ADD25R,0.6000X0.5000*%
%ADD26R,0.8500X0.9500*%
%ADD27R,0.3000X0.2700*%
%ADD28R,0.2700X0.3000*%
%ADD40C,1.9500*%
%ADD41R,1.8000X1.8000*%
%ADD42C,1.8000*%
D15*
X1177000Y720735D02*
D03*
Y704535D02*
D03*
D16*
X1179550Y740600D02*
D03*
X1170850D02*
D03*
D17*
X1076000Y638800D02*
D03*
D18*
X1049002Y717805D02*
D03*
X1049001Y764801D02*
D03*
D19*
X1064702Y728806D02*
D03*
Y753806D02*
D03*
X1064700Y706800D02*
D03*
Y681800D02*
D03*
D20*
X1075402Y741306D02*
D03*
X1075400Y694300D02*
D03*
D21*
X1071211Y775801D02*
D03*
D22*
X1076000Y659800D02*
D03*
D23*
X1049000Y659300D02*
D03*
D24*
X1144000Y704500D02*
D03*
Y708500D02*
D03*
Y712500D02*
D03*
Y716500D02*
D03*
Y720500D02*
D03*
Y724500D02*
D03*
X1150000Y704500D02*
D03*
X1148000Y712500D02*
D03*
Y716500D02*
D03*
Y724500D02*
D03*
X1164000Y712500D02*
D03*
Y716500D02*
D03*
Y720500D02*
D03*
Y724500D02*
D03*
Y704500D02*
D03*
Y708500D02*
D03*
X1152000Y712500D02*
D03*
Y716500D02*
D03*
Y724500D02*
D03*
X1156000Y704500D02*
D03*
Y712500D02*
D03*
Y716500D02*
D03*
X1152000Y720500D02*
D03*
X1160000Y704500D02*
D03*
Y708500D02*
D03*
Y720500D02*
D03*
Y724500D02*
D03*
Y716500D02*
D03*
D25*
X1123000Y725700D02*
D03*
X1133000D02*
D03*
X1123200Y737000D02*
D03*
X1133200D02*
D03*
D26*
X1120699Y706604D02*
D03*
X1132199D02*
D03*
X1120699Y692104D02*
D03*
X1132199D02*
D03*
D27*
X1154789Y678534D02*
D03*
X1154789Y684234D02*
D03*
X1154791Y689962D02*
D03*
X1154791Y695662D02*
D03*
X1148399Y686354D02*
D03*
Y680654D02*
D03*
X1111199Y696504D02*
D03*
Y702204D02*
D03*
D28*
X1134899Y716204D02*
D03*
X1129199D02*
D03*
X1162847Y732790D02*
D03*
X1157148D02*
D03*
X1142400Y733400D02*
D03*
X1148100D02*
D03*
X1128999Y682704D02*
D03*
X1134699D02*
D03*
D40*
X1206000Y606119D02*
D03*
Y811119D02*
D03*
D41*
X1203397Y661190D02*
D03*
D42*
Y762790D02*
D03*
X1203397Y737390D02*
D03*
X1203397Y711990D02*
D03*
X1203397Y686590D02*
D03*
M02*
