G04*
G04 #@! TF.GenerationSoftware,Altium Limited,Altium Designer,21.3.2 (30)*
G04*
G04 Layer_Color=128*
%FSLAX44Y44*%
%MOMM*%
G71*
G04*
G04 #@! TF.SameCoordinates,63FCB1AE-FA75-410F-B4B2-0E9A8DB9BD7B*
G04*
G04*
G04 #@! TF.FilePolarity,Positive*
G04*
G01*
G75*
%ADD47C,0.0508*%
D47*
X1199500Y606119D02*
X1212500D01*
X1206000Y599619D02*
Y612619D01*
X1199500Y811119D02*
X1212500D01*
X1206000Y804619D02*
Y817619D01*
X1198397Y762790D02*
X1208397D01*
X1203397Y757790D02*
Y767790D01*
X1198397Y737390D02*
X1208397D01*
X1203397Y732390D02*
Y742390D01*
X1198397Y711990D02*
X1208397D01*
X1203397Y706990D02*
Y716990D01*
X1198397Y686590D02*
X1208397D01*
X1203397Y681590D02*
Y691590D01*
X1219500Y814000D02*
X1222500D01*
X1221000Y812500D02*
Y815500D01*
X1219500Y792000D02*
X1222500D01*
X1221000Y790500D02*
Y793500D01*
X1219500Y770000D02*
X1222500D01*
X1221000Y768500D02*
Y771500D01*
X1219500Y748000D02*
X1222500D01*
X1221000Y746500D02*
Y749500D01*
X1219500Y726000D02*
X1222500D01*
X1221000Y724500D02*
Y727500D01*
X1219500Y704000D02*
X1222500D01*
X1221000Y702500D02*
Y705500D01*
X1219500Y682000D02*
X1222500D01*
X1221000Y680500D02*
Y683500D01*
X1219500Y660000D02*
X1222500D01*
X1221000Y658500D02*
Y661500D01*
X1219500Y638000D02*
X1222500D01*
X1221000Y636500D02*
Y639500D01*
X1219500Y616000D02*
X1222500D01*
X1221000Y614500D02*
Y617500D01*
X1219500Y594000D02*
X1222500D01*
X1221000Y592500D02*
Y595500D01*
X1208500Y792000D02*
X1211500D01*
X1210000Y790500D02*
Y793500D01*
X1214000Y781000D02*
X1217000D01*
X1215500Y779500D02*
Y782500D01*
X1208500Y638000D02*
X1211500D01*
X1210000Y636500D02*
Y639500D01*
X1214000Y627000D02*
X1217000D01*
X1215500Y625500D02*
Y628500D01*
X1197500Y792000D02*
X1200500D01*
X1199000Y790500D02*
Y793500D01*
X1203000Y781000D02*
X1206000D01*
X1204500Y779500D02*
Y782500D01*
X1197500Y638000D02*
X1200500D01*
X1199000Y636500D02*
Y639500D01*
X1203000Y627000D02*
X1206000D01*
X1204500Y625500D02*
Y628500D01*
X1186500Y814000D02*
X1189500D01*
X1188000Y812500D02*
Y815500D01*
X1192000Y781000D02*
X1195000D01*
X1193500Y779500D02*
Y782500D01*
X1186500Y726000D02*
X1189500D01*
X1188000Y724500D02*
Y727500D01*
X1186500Y638000D02*
X1189500D01*
X1188000Y636500D02*
Y639500D01*
X1192000Y627000D02*
X1195000D01*
X1193500Y625500D02*
Y628500D01*
X1186500Y616000D02*
X1189500D01*
X1188000Y614500D02*
Y617500D01*
X1175500Y814000D02*
X1178500D01*
X1177000Y812500D02*
Y815500D01*
X1181000Y803000D02*
X1184000D01*
X1182500Y801500D02*
Y804500D01*
X1175500Y792000D02*
X1178500D01*
X1177000Y790500D02*
Y793500D01*
X1175500Y770000D02*
X1178500D01*
X1177000Y768500D02*
Y771500D01*
X1175500Y660000D02*
X1178500D01*
X1177000Y658500D02*
Y661500D01*
X1181000Y649000D02*
X1184000D01*
X1182500Y647500D02*
Y650500D01*
X1175500Y638000D02*
X1178500D01*
X1177000Y636500D02*
Y639500D01*
X1181000Y627000D02*
X1184000D01*
X1182500Y625500D02*
Y628500D01*
X1175500Y616000D02*
X1178500D01*
X1177000Y614500D02*
Y617500D01*
X1181000Y605000D02*
X1184000D01*
X1182500Y603500D02*
Y606500D01*
X1170000Y803000D02*
X1173000D01*
X1171500Y801500D02*
Y804500D01*
X1164500Y792000D02*
X1167500D01*
X1166000Y790500D02*
Y793500D01*
X1170000Y781000D02*
X1173000D01*
X1171500Y779500D02*
Y782500D01*
X1164500Y770000D02*
X1167500D01*
X1166000Y768500D02*
Y771500D01*
X1164500Y660000D02*
X1167500D01*
X1166000Y658500D02*
Y661500D01*
X1170000Y649000D02*
X1173000D01*
X1171500Y647500D02*
Y650500D01*
X1164500Y638000D02*
X1167500D01*
X1166000Y636500D02*
Y639500D01*
X1170000Y627000D02*
X1173000D01*
X1171500Y625500D02*
Y628500D01*
X1164500Y616000D02*
X1167500D01*
X1166000Y614500D02*
Y617500D01*
X1170000Y605000D02*
X1173000D01*
X1171500Y603500D02*
Y606500D01*
X1159000Y803000D02*
X1162000D01*
X1160500Y801500D02*
Y804500D01*
X1153500Y792000D02*
X1156500D01*
X1155000Y790500D02*
Y793500D01*
X1159000Y781000D02*
X1162000D01*
X1160500Y779500D02*
Y782500D01*
X1153500Y770000D02*
X1156500D01*
X1155000Y768500D02*
Y771500D01*
X1159000Y671000D02*
X1162000D01*
X1160500Y669500D02*
Y672500D01*
X1153500Y660000D02*
X1156500D01*
X1155000Y658500D02*
Y661500D01*
X1159000Y649000D02*
X1162000D01*
X1160500Y647500D02*
Y650500D01*
X1153500Y638000D02*
X1156500D01*
X1155000Y636500D02*
Y639500D01*
X1159000Y627000D02*
X1162000D01*
X1160500Y625500D02*
Y628500D01*
X1153500Y616000D02*
X1156500D01*
X1155000Y614500D02*
Y617500D01*
X1148000Y803000D02*
X1151000D01*
X1149500Y801500D02*
Y804500D01*
X1142500Y792000D02*
X1145500D01*
X1144000Y790500D02*
Y793500D01*
X1148000Y781000D02*
X1151000D01*
X1149500Y779500D02*
Y782500D01*
X1142500Y770000D02*
X1145500D01*
X1144000Y768500D02*
Y771500D01*
X1148000Y649000D02*
X1151000D01*
X1149500Y647500D02*
Y650500D01*
X1142500Y638000D02*
X1145500D01*
X1144000Y636500D02*
Y639500D01*
X1148000Y627000D02*
X1151000D01*
X1149500Y625500D02*
Y628500D01*
X1142500Y616000D02*
X1145500D01*
X1144000Y614500D02*
Y617500D01*
X1137000Y781000D02*
X1140000D01*
X1138500Y779500D02*
Y782500D01*
X1131500Y770000D02*
X1134500D01*
X1133000Y768500D02*
Y771500D01*
X1137000Y649000D02*
X1140000D01*
X1138500Y647500D02*
Y650500D01*
X1131500Y638000D02*
X1134500D01*
X1133000Y636500D02*
Y639500D01*
X1137000Y627000D02*
X1140000D01*
X1138500Y625500D02*
Y628500D01*
X1126000Y781000D02*
X1129000D01*
X1127500Y779500D02*
Y782500D01*
X1120500Y770000D02*
X1123500D01*
X1122000Y768500D02*
Y771500D01*
X1120500Y748000D02*
X1123500D01*
X1122000Y746500D02*
Y749500D01*
X1120500Y682000D02*
X1123500D01*
X1122000Y680500D02*
Y683500D01*
X1126000Y671000D02*
X1129000D01*
X1127500Y669500D02*
Y672500D01*
X1126000Y649000D02*
X1129000D01*
X1127500Y647500D02*
Y650500D01*
X1120500Y638000D02*
X1123500D01*
X1122000Y636500D02*
Y639500D01*
X1109500Y770000D02*
X1112500D01*
X1111000Y768500D02*
Y771500D01*
X1115000Y759000D02*
X1118000D01*
X1116500Y757500D02*
Y760500D01*
X1109500Y748000D02*
X1112500D01*
X1111000Y746500D02*
Y749500D01*
X1109500Y726000D02*
X1112500D01*
X1111000Y724500D02*
Y727500D01*
X1109500Y682000D02*
X1112500D01*
X1111000Y680500D02*
Y683500D01*
X1115000Y671000D02*
X1118000D01*
X1116500Y669500D02*
Y672500D01*
X1115000Y649000D02*
X1118000D01*
X1116500Y647500D02*
Y650500D01*
X1093500Y638938D02*
X1096500D01*
X1095000Y637438D02*
Y640438D01*
X1152500Y714372D02*
X1155500D01*
X1154000Y712872D02*
Y715872D01*
X1148500Y714345D02*
X1151500D01*
X1150000Y712845D02*
Y715845D01*
X1161674Y751274D02*
X1164674D01*
X1163174Y749774D02*
Y752774D01*
X1133200Y752200D02*
X1136200D01*
X1134700Y750700D02*
Y753700D01*
M02*
