M48
;Layer_Color=9474304
;FILE_FORMAT=4:4
METRIC,LZ
;TYPE=PLATED
T1F00S00C0.3000
T2F00S00C1.0000
T3F00S00C1.3000
%
T01
X01221Y00594
Y00616
X012155Y00627
X012045
X011935
X01199Y00638
X0121
X01221
Y0066
Y00682
Y00704
Y00726
Y00748
Y0077
X012155Y00781
X012045
X011935
X01199Y00792
X0121
X01221
X01177
X01166
X01155
X01144
X011495Y00781
X011605
X011715
X01166Y0077
X01177
X01155
X01144
X01133
X01122
X01111
X011165Y00759
X01111Y00748
X01122
X011347Y007522
X01163174Y00751274
X01154Y00714372
X0115Y00714345
X01188Y00726
X01177Y0066
X01166
X01155
X011605Y00671
Y00649
X011715
X011825
X01177Y00638
X01188
X011825Y00627
X011715
X011605
X011495
X011385
X01133Y00638
X01144
X01155
X01166
Y00616
X01177
X01188
X011825Y00605
X011715
X01155Y00616
X01144
X011495Y00649
X011385
X011275
X011165
X01122Y00638
X01095Y00638938
X011165Y00671
X011275
X01122Y00682
X01111
Y00726
X011275Y00781
X011385
X011495Y00803
X011605
X011715
X011825
X01177Y00814
X01188
X01221
T02
X01203397Y0068659
X01203397Y0071199
X01203397Y0073739
X01203397Y0076279
T03
X01206Y00606119
Y00811119
M30
