G04*
G04 #@! TF.GenerationSoftware,Altium Limited,Altium Designer,21.3.2 (30)*
G04*
G04 Layer_Color=32768*
%FSLAX44Y44*%
%MOMM*%
G71*
G04*
G04 #@! TF.SameCoordinates,63FCB1AE-FA75-410F-B4B2-0E9A8DB9BD7B*
G04*
G04*
G04 #@! TF.FilePolarity,Positive*
G04*
G01*
G75*
%ADD39C,0.1000*%
D39*
X1146999Y706001D02*
G03*
X1146999Y706001I-1500J0D01*
G01*
X1118449Y708354D02*
G03*
X1119449Y709354I0J1000D01*
G01*
X1120749Y708054D02*
G03*
X1119749Y707054I0J-1000D01*
G01*
X1133449Y709354D02*
G03*
X1134449Y708354I1000J0D01*
G01*
X1133149Y707054D02*
G03*
X1132149Y708054I-1000J0D01*
G01*
X1119749Y691654D02*
G03*
X1120749Y690654I1000J0D01*
G01*
X1119449Y689354D02*
G03*
X1118449Y690354I-1000J0D01*
G01*
X1132149Y690654D02*
G03*
X1133149Y691654I0J1000D01*
G01*
X1134449Y690354D02*
G03*
X1133449Y689354I0J-1000D01*
G01*
X1141720Y702130D02*
X1166280D01*
Y726870D01*
X1141720D02*
X1166280D01*
X1141720Y702130D02*
Y726870D01*
X1122750Y728450D02*
X1133250D01*
X1122750Y722950D02*
X1133250D01*
X1122750D02*
Y728450D01*
X1133250Y722950D02*
Y728450D01*
X1119749Y691654D02*
Y707054D01*
X1119449Y709354D02*
X1133449D01*
X1120749Y708054D02*
X1132149D01*
X1118449Y690354D02*
Y708354D01*
X1133149Y691654D02*
Y707054D01*
X1120749Y690654D02*
X1132149D01*
X1134449Y690354D02*
Y708354D01*
X1119449Y689354D02*
X1133449D01*
X1153139Y684534D02*
X1156439D01*
X1153139Y678234D02*
X1156439Y678234D01*
Y684534D01*
X1153139Y678234D02*
Y684534D01*
X1153141Y695962D02*
X1156441D01*
X1153141Y689662D02*
X1156441Y689662D01*
Y695962D01*
X1153141Y689662D02*
Y695962D01*
X1122950Y734250D02*
Y739750D01*
X1133450Y734250D02*
Y739750D01*
X1122950D02*
X1133450D01*
X1122950Y734250D02*
X1133450D01*
X1135199Y714554D02*
Y717854D01*
X1128899D02*
X1135199D01*
X1128899Y714554D02*
X1135199D01*
X1128899D02*
Y717854D01*
X1163147Y731140D02*
Y734440D01*
X1156847D02*
X1163147D01*
X1156847Y731140D02*
X1163147D01*
X1156847D02*
Y734440D01*
X1142100Y731750D02*
Y735050D01*
Y731750D02*
X1148400D01*
X1142100Y735050D02*
X1148400D01*
Y731750D02*
Y735050D01*
X1146749Y686654D02*
X1150049D01*
X1146749Y680354D02*
Y686654D01*
X1150049Y680354D02*
Y686654D01*
X1146749Y680354D02*
X1150049D01*
X1109549Y696204D02*
X1112849D01*
Y702504D01*
X1109549Y696204D02*
Y702504D01*
X1112849D01*
X1128699Y681054D02*
Y684354D01*
Y681054D02*
X1134999D01*
X1128699Y684354D02*
X1134999D01*
Y681054D02*
Y684354D01*
M02*
