G04*
G04 #@! TF.GenerationSoftware,Altium Limited,Altium Designer,21.3.2 (30)*
G04*
G04 Layer_Physical_Order=1*
G04 Layer_Color=255*
%FSLAX44Y44*%
%MOMM*%
G71*
G04*
G04 #@! TF.SameCoordinates,63FCB1AE-FA75-410F-B4B2-0E9A8DB9BD7B*
G04*
G04*
G04 #@! TF.FilePolarity,Positive*
G04*
G01*
G75*
%ADD10C,0.2000*%
%ADD15R,0.9300X0.8100*%
%ADD16R,0.5600X0.6000*%
%ADD17R,4.9000X0.9000*%
%ADD18R,0.5000X2.7000*%
%ADD19R,2.6400X0.5000*%
%ADD20R,0.5000X2.0000*%
%ADD21R,3.9400X0.5000*%
%ADD22R,4.9000X0.5000*%
%ADD23R,0.5000X5.0000*%
%ADD24C,0.1940*%
%ADD25R,0.6000X0.5000*%
%ADD26R,0.8500X0.9500*%
%ADD27R,0.3000X0.2700*%
%ADD28R,0.2700X0.3000*%
%ADD39C,0.1000*%
%ADD40C,1.9500*%
%ADD41R,1.8000X1.8000*%
%ADD42C,1.8000*%
%ADD43C,0.5000*%
%ADD44C,0.3000*%
G36*
X1090911Y773303D02*
X1090910Y773302D01*
X1090909Y773303D01*
X1051501D01*
Y756309D01*
X1051497Y756305D01*
X1077906D01*
Y726292D01*
X1077905Y726291D01*
X1077891Y726305D01*
X1051501D01*
Y709307D01*
X1051493Y709299D01*
X1077899D01*
Y679300D01*
X1051499D01*
Y679300D01*
X1051501Y679298D01*
Y662299D01*
X1100498D01*
Y657299D01*
X1051517D01*
Y643323D01*
X1051492Y643298D01*
X1051495Y643295D01*
X1100498D01*
Y634303D01*
X1100501Y634300D01*
X1100499Y634301D01*
X1046506D01*
X1046498Y634293D01*
Y684295D01*
X1072881D01*
X1072895Y684309D01*
Y704302D01*
X1074870D01*
X1074861Y704311D01*
X1046495D01*
Y731234D01*
X1046490Y731239D01*
X1046525Y731274D01*
X1072939D01*
Y751288D01*
X1046504D01*
Y778291D01*
X1046513Y778300D01*
X1090911D01*
Y773303D01*
D02*
G37*
G36*
X1224973Y825452D02*
X1228515Y824986D01*
Y766125D01*
Y647175D01*
Y591846D01*
X1222373Y591037D01*
X1212090Y590588D01*
X1201807Y591037D01*
X1191602Y592381D01*
X1181554Y594608D01*
X1171738Y597704D01*
X1162228Y601642D01*
X1153099Y606395D01*
X1144418Y611925D01*
X1136252Y618191D01*
X1128664Y625145D01*
X1121710Y632733D01*
X1116753Y639194D01*
X1116753Y639194D01*
X1116347Y639647D01*
X1115855Y639976D01*
X1115087Y640489D01*
X1113600Y640785D01*
X1112995Y640696D01*
X1112276Y640625D01*
X1111758Y640468D01*
X1108738Y639552D01*
X1105477Y637809D01*
X1104236Y636790D01*
X1103088Y637333D01*
Y643295D01*
X1103400Y644210D01*
X1104391Y644407D01*
X1105231Y644969D01*
X1105793Y645809D01*
X1105990Y646800D01*
Y656594D01*
X1136309D01*
X1137690Y656868D01*
X1138861Y657651D01*
X1155854Y674644D01*
X1158829D01*
Y680344D01*
X1158829D01*
Y682328D01*
X1160003Y682814D01*
X1183819Y658998D01*
X1184824Y658326D01*
X1186011Y658090D01*
X1191857D01*
Y649650D01*
X1214937D01*
Y672729D01*
X1191857D01*
Y664289D01*
X1187294D01*
X1169159Y682424D01*
X1169785Y683595D01*
X1170311Y683490D01*
X1192281D01*
X1192644Y682135D01*
X1194163Y679504D01*
X1196312Y677355D01*
X1198943Y675836D01*
X1201878Y675050D01*
X1204917D01*
X1207852Y675836D01*
X1210483Y677355D01*
X1212632Y679504D01*
X1214151Y682135D01*
X1214937Y685070D01*
Y688109D01*
X1214151Y691044D01*
X1212632Y693675D01*
X1210483Y695824D01*
X1207852Y697343D01*
X1204917Y698130D01*
X1201878D01*
X1198943Y697343D01*
X1196312Y695824D01*
X1194163Y693675D01*
X1192644Y691044D01*
X1192281Y689689D01*
X1171594D01*
X1170149Y691135D01*
X1170775Y692305D01*
X1171300Y692200D01*
X1182800D01*
X1183986Y692436D01*
X1184992Y693108D01*
X1195475Y703592D01*
X1196312Y702755D01*
X1198943Y701236D01*
X1201878Y700450D01*
X1204917D01*
X1207852Y701236D01*
X1210483Y702755D01*
X1212632Y704904D01*
X1214151Y707535D01*
X1214937Y710470D01*
Y713509D01*
X1214151Y716444D01*
X1212632Y719075D01*
X1210483Y721224D01*
X1207852Y722743D01*
X1204917Y723530D01*
X1201878D01*
X1198943Y722743D01*
X1196312Y721224D01*
X1194163Y719075D01*
X1192644Y716444D01*
X1191857Y713509D01*
Y710470D01*
X1192223Y709106D01*
X1185363Y702247D01*
X1184190Y702733D01*
Y711125D01*
X1179491D01*
X1179361Y711776D01*
X1178689Y712781D01*
X1178499Y712972D01*
X1178985Y714145D01*
X1184190D01*
Y727325D01*
X1180804D01*
X1180391Y728595D01*
X1181742Y729945D01*
X1182414Y730951D01*
X1182650Y732137D01*
Y735060D01*
X1184890D01*
Y746140D01*
X1170336D01*
X1169603Y747410D01*
X1170163Y748379D01*
X1170674Y750286D01*
Y752261D01*
X1170163Y754169D01*
X1169175Y755879D01*
X1167779Y757275D01*
X1166069Y758263D01*
X1164161Y758774D01*
X1162186D01*
X1160279Y758263D01*
X1158569Y757275D01*
X1157172Y755879D01*
X1156185Y754169D01*
X1155674Y752261D01*
Y750286D01*
X1156185Y748379D01*
X1157172Y746669D01*
X1158569Y745272D01*
X1159748Y744591D01*
Y736830D01*
X1158418D01*
Y732790D01*
X1155878D01*
Y736830D01*
X1153258D01*
Y736830D01*
X1151990Y736835D01*
Y737440D01*
X1149370D01*
Y733400D01*
X1146830D01*
Y737440D01*
X1138740D01*
Y742040D01*
X1136300D01*
Y744864D01*
X1137595Y745211D01*
X1139305Y746199D01*
X1140702Y747595D01*
X1141689Y749305D01*
X1142200Y751213D01*
Y753187D01*
X1141689Y755095D01*
X1140702Y756805D01*
X1139305Y758202D01*
X1137595Y759189D01*
X1135687Y759700D01*
X1133713D01*
X1131805Y759189D01*
X1130095Y758202D01*
X1128699Y756805D01*
X1127711Y755095D01*
X1127200Y753187D01*
Y751213D01*
X1127711Y749305D01*
X1128699Y747595D01*
X1130095Y746199D01*
X1130100Y746195D01*
Y742040D01*
X1124470D01*
Y737000D01*
X1123200D01*
Y735730D01*
X1117660D01*
Y731960D01*
X1117660D01*
X1117539Y730740D01*
X1117460D01*
Y720660D01*
X1124157D01*
X1125309Y719507D01*
Y717474D01*
X1127657D01*
X1127714Y717436D01*
X1128241Y717331D01*
X1128900Y717200D01*
X1129199D01*
Y714934D01*
X1125309D01*
Y713894D01*
X1113909D01*
Y706094D01*
X1107159D01*
Y706094D01*
X1105990Y706336D01*
Y774863D01*
X1107138Y775406D01*
X1107619Y775010D01*
X1110507Y773467D01*
X1113597Y772529D01*
X1113612Y772604D01*
X1114366Y772454D01*
X1115852Y772750D01*
X1117113Y773592D01*
X1117955Y774852D01*
X1118025Y775203D01*
X1118366Y775740D01*
X1124613Y783881D01*
X1131546Y791447D01*
X1139112Y798380D01*
X1147253Y804627D01*
X1155908Y810140D01*
X1165010Y814879D01*
X1174490Y818806D01*
X1184277Y821891D01*
X1194296Y824112D01*
X1204470Y825452D01*
X1214722Y825899D01*
X1224973Y825452D01*
D02*
G37*
G36*
X1157750Y718000D02*
Y711000D01*
X1157250Y710500D01*
X1146750D01*
X1146000Y711250D01*
Y718000D01*
X1146500Y718500D01*
X1157250D01*
X1157750Y718000D01*
D02*
G37*
G36*
X1151270Y701227D02*
X1151630Y701376D01*
X1152900Y700777D01*
Y699552D01*
X1150751D01*
Y693852D01*
X1150751D01*
Y690244D01*
X1144359D01*
Y682464D01*
Y681924D01*
X1148399D01*
Y679384D01*
X1144359D01*
Y676764D01*
X1146106D01*
X1146592Y675590D01*
X1134814Y663812D01*
X1105990D01*
Y692371D01*
X1107159Y692614D01*
Y692614D01*
X1109929D01*
Y696504D01*
X1112469D01*
Y692614D01*
X1113909D01*
Y684814D01*
X1119429D01*
Y692104D01*
X1121969D01*
Y684814D01*
X1125109D01*
Y683974D01*
X1128999D01*
Y682704D01*
X1130269D01*
Y678664D01*
X1138589D01*
Y684814D01*
X1138989D01*
Y693341D01*
X1139740Y693490D01*
X1140745Y694162D01*
X1143292Y696708D01*
X1143964Y697714D01*
X1144200Y698900D01*
Y700990D01*
X1144698D01*
X1145988Y701524D01*
X1146170Y701706D01*
X1147000Y702489D01*
X1147830Y701706D01*
X1148012Y701524D01*
X1148730Y701227D01*
Y704500D01*
X1151270D01*
Y701227D01*
D02*
G37*
%LPC*%
G36*
X1072934Y751307D02*
X1072925Y751298D01*
X1072939D01*
Y751288D01*
X1074447D01*
X1074437Y751298D01*
X1072939D01*
Y751302D01*
X1072934Y751307D01*
D02*
G37*
G36*
X1207618Y823409D02*
X1204382D01*
X1201256Y822571D01*
X1198454Y820954D01*
X1196166Y818665D01*
X1194548Y815863D01*
X1193710Y812737D01*
Y809501D01*
X1194548Y806375D01*
X1196166Y803573D01*
X1198454Y801285D01*
X1201256Y799667D01*
X1204382Y798829D01*
X1207618D01*
X1210744Y799667D01*
X1213546Y801285D01*
X1215834Y803573D01*
X1217452Y806375D01*
X1218290Y809501D01*
Y812737D01*
X1217452Y815863D01*
X1215834Y818665D01*
X1213546Y820954D01*
X1210744Y822571D01*
X1207618Y823409D01*
D02*
G37*
G36*
X1204917Y774330D02*
X1204667D01*
Y764060D01*
X1214937D01*
Y764309D01*
X1214151Y767244D01*
X1212632Y769875D01*
X1210483Y772024D01*
X1207852Y773543D01*
X1204917Y774330D01*
D02*
G37*
G36*
X1202127D02*
X1201878D01*
X1198943Y773543D01*
X1196312Y772024D01*
X1194163Y769875D01*
X1192644Y767244D01*
X1191857Y764309D01*
Y764060D01*
X1202127D01*
Y774330D01*
D02*
G37*
G36*
X1214937Y761520D02*
X1204667D01*
Y751250D01*
X1204917D01*
X1207852Y752036D01*
X1210483Y753555D01*
X1212632Y755704D01*
X1214151Y758335D01*
X1214937Y761270D01*
Y761520D01*
D02*
G37*
G36*
X1202127D02*
X1191857D01*
Y761270D01*
X1192644Y758335D01*
X1194163Y755704D01*
X1196312Y753555D01*
X1198943Y752036D01*
X1201878Y751250D01*
X1202127D01*
Y761520D01*
D02*
G37*
G36*
X1121930Y742040D02*
X1117660D01*
Y738270D01*
X1121930D01*
Y742040D01*
D02*
G37*
G36*
X1204917Y748930D02*
X1201878D01*
X1198943Y748143D01*
X1196312Y746624D01*
X1194163Y744475D01*
X1192644Y741844D01*
X1191857Y738909D01*
Y735870D01*
X1192644Y732935D01*
X1194163Y730304D01*
X1196312Y728155D01*
X1198943Y726636D01*
X1201878Y725850D01*
X1204917D01*
X1207852Y726636D01*
X1210483Y728155D01*
X1212632Y730304D01*
X1214151Y732935D01*
X1214937Y735870D01*
Y738909D01*
X1214151Y741844D01*
X1212632Y744475D01*
X1210483Y746624D01*
X1207852Y748143D01*
X1204917Y748930D01*
D02*
G37*
G36*
X1207618Y618409D02*
X1207270D01*
Y607389D01*
X1218290D01*
Y607737D01*
X1217452Y610863D01*
X1215834Y613665D01*
X1213546Y615953D01*
X1210744Y617571D01*
X1207618Y618409D01*
D02*
G37*
G36*
X1204730D02*
X1204382D01*
X1201256Y617571D01*
X1198454Y615953D01*
X1196166Y613665D01*
X1194548Y610863D01*
X1193710Y607737D01*
Y607389D01*
X1204730D01*
Y618409D01*
D02*
G37*
G36*
X1218290Y604849D02*
X1207270D01*
Y593829D01*
X1207618D01*
X1210744Y594667D01*
X1213546Y596285D01*
X1215834Y598573D01*
X1217452Y601375D01*
X1218290Y604501D01*
Y604849D01*
D02*
G37*
G36*
X1204730D02*
X1193710D01*
Y604501D01*
X1194548Y601375D01*
X1196166Y598573D01*
X1198454Y596285D01*
X1201256Y594667D01*
X1204382Y593829D01*
X1204730D01*
Y604849D01*
D02*
G37*
G36*
X1127729Y681434D02*
X1125109D01*
Y678664D01*
X1127729D01*
Y681434D01*
D02*
G37*
%LPD*%
D10*
X1096000Y660203D02*
X1136309D01*
X1154639Y678534D01*
D15*
X1177000Y720735D02*
D03*
Y704535D02*
D03*
D16*
X1179550Y740600D02*
D03*
X1170850D02*
D03*
D17*
X1076000Y638800D02*
D03*
D18*
X1049002Y717805D02*
D03*
X1049001Y764801D02*
D03*
D19*
X1064702Y728806D02*
D03*
Y753806D02*
D03*
X1064700Y706800D02*
D03*
Y681800D02*
D03*
D20*
X1075402Y741306D02*
D03*
X1075400Y694300D02*
D03*
D21*
X1071211Y775801D02*
D03*
D22*
X1076000Y659800D02*
D03*
D23*
X1049000Y659300D02*
D03*
D24*
X1144000Y704500D02*
D03*
Y708500D02*
D03*
Y712500D02*
D03*
Y716500D02*
D03*
Y720500D02*
D03*
Y724500D02*
D03*
X1150000Y704500D02*
D03*
X1148000Y712500D02*
D03*
Y716500D02*
D03*
Y724500D02*
D03*
X1164000Y712500D02*
D03*
Y716500D02*
D03*
Y720500D02*
D03*
Y724500D02*
D03*
Y704500D02*
D03*
Y708500D02*
D03*
X1152000Y712500D02*
D03*
Y716500D02*
D03*
Y724500D02*
D03*
X1156000Y704500D02*
D03*
Y712500D02*
D03*
Y716500D02*
D03*
X1152000Y720500D02*
D03*
X1160000Y704500D02*
D03*
Y708500D02*
D03*
Y720500D02*
D03*
Y724500D02*
D03*
Y716500D02*
D03*
D25*
X1123000Y725700D02*
D03*
X1133000D02*
D03*
X1123200Y737000D02*
D03*
X1133200D02*
D03*
D26*
X1120699Y706604D02*
D03*
X1132199D02*
D03*
X1120699Y692104D02*
D03*
X1132199D02*
D03*
D27*
X1154789Y678534D02*
D03*
X1154789Y684234D02*
D03*
X1154791Y689962D02*
D03*
X1154791Y695662D02*
D03*
X1148399Y686354D02*
D03*
Y680654D02*
D03*
X1111199Y696504D02*
D03*
Y702204D02*
D03*
D28*
X1134899Y716204D02*
D03*
X1129199D02*
D03*
X1162847Y732790D02*
D03*
X1157148D02*
D03*
X1142400Y733400D02*
D03*
X1148100D02*
D03*
X1128999Y682704D02*
D03*
X1134699D02*
D03*
D39*
X1176497Y705038D02*
Y710590D01*
Y705038D02*
X1177000Y704535D01*
Y720735D02*
Y729587D01*
X1179550Y732137D01*
Y740600D01*
X1144000Y712500D02*
Y716500D01*
X1162847Y732790D02*
Y750947D01*
X1163174Y751274D02*
X1163500Y751600D01*
X1162847Y750947D02*
X1163174Y751274D01*
X1162847Y732640D02*
Y732790D01*
X1116799Y702204D02*
X1120699Y706104D01*
Y706301D01*
X1111199Y702204D02*
X1116799D01*
X1134699Y682704D02*
Y689604D01*
X1132199Y692104D02*
X1134699Y689604D01*
X1154639Y678534D02*
X1154789D01*
X1133200Y750700D02*
X1134700Y752200D01*
X1133200Y737000D02*
Y750700D01*
X1142200Y733600D02*
X1142400Y733400D01*
Y730100D02*
Y733400D01*
Y730100D02*
X1148000Y724500D01*
X1164000Y712500D02*
X1174587D01*
X1176497Y710590D01*
X1199490Y711990D02*
X1203397D01*
X1182800Y695300D02*
X1199490Y711990D01*
X1168400Y698200D02*
X1171300Y695300D01*
X1182800D01*
X1164000Y708500D02*
X1168400Y704100D01*
Y698200D02*
Y704100D01*
X1164100Y692800D02*
Y704400D01*
X1164000Y704500D02*
X1164100Y704400D01*
Y692800D02*
X1170311Y686590D01*
X1203397D01*
X1160000Y687200D02*
X1186011Y661190D01*
X1203397D01*
X1160000Y687200D02*
Y704500D01*
X1154791Y687099D02*
Y689962D01*
Y684235D02*
Y687099D01*
X1154046Y686354D02*
X1154791Y687099D01*
X1148399Y686354D02*
X1154046D01*
X1154789Y684234D02*
X1154791Y684235D01*
X1162847Y732640D02*
X1164000Y731487D01*
Y724500D02*
Y731487D01*
X1144000Y724500D02*
Y724700D01*
X1135700Y733000D02*
X1144000Y724700D01*
X1133700Y737000D02*
X1135700Y735000D01*
Y733000D02*
Y735000D01*
X1133200Y737000D02*
X1133700D01*
X1128900Y720300D02*
X1140200D01*
X1144000Y716500D01*
X1123000Y725700D02*
X1123500D01*
X1128900Y720300D01*
X1134899Y716204D02*
X1135196Y716500D01*
X1144000D01*
X1143820Y704320D02*
X1144000Y704500D01*
X1142520Y704320D02*
X1143820D01*
X1141100Y702900D02*
X1142520Y704320D01*
X1141100Y698900D02*
Y702900D01*
X1135949Y696354D02*
X1138554D01*
X1141100Y698900D01*
X1132199Y692104D02*
Y692604D01*
X1135949Y696354D01*
X1141566Y708680D02*
X1143820D01*
X1140100Y708700D02*
X1141546D01*
X1143820Y708680D02*
X1144000Y708500D01*
X1141546Y708700D02*
X1141566Y708680D01*
X1139000Y707600D02*
X1140100Y708700D01*
X1139000Y700914D02*
Y707600D01*
X1138100Y700014D02*
X1139000Y700914D01*
X1138100Y699986D02*
Y700014D01*
X1127600Y699400D02*
X1137514D01*
X1138100Y699986D01*
X1124646Y702354D02*
X1127600Y699400D01*
X1122000Y704803D02*
Y705000D01*
Y704803D02*
X1124449Y702354D01*
X1124646D01*
X1120699Y706301D02*
X1122000Y705000D01*
X1156000Y696721D02*
Y704500D01*
X1154941Y695662D02*
X1156000Y696721D01*
X1154791Y695662D02*
X1154941D01*
D40*
X1206000Y606119D02*
D03*
Y811119D02*
D03*
D41*
X1203397Y661190D02*
D03*
D42*
Y762790D02*
D03*
X1203397Y737390D02*
D03*
X1203397Y711990D02*
D03*
X1203397Y686590D02*
D03*
D43*
X1221000Y814000D02*
D03*
Y792000D02*
D03*
Y770000D02*
D03*
Y748000D02*
D03*
Y726000D02*
D03*
Y704000D02*
D03*
Y682000D02*
D03*
Y660000D02*
D03*
Y638000D02*
D03*
Y616000D02*
D03*
Y594000D02*
D03*
X1210000Y792000D02*
D03*
X1215500Y781000D02*
D03*
X1210000Y638000D02*
D03*
X1215500Y627000D02*
D03*
X1199000Y792000D02*
D03*
X1204500Y781000D02*
D03*
X1199000Y638000D02*
D03*
X1204500Y627000D02*
D03*
X1188000Y814000D02*
D03*
X1193500Y781000D02*
D03*
X1188000Y726000D02*
D03*
Y638000D02*
D03*
X1193500Y627000D02*
D03*
X1188000Y616000D02*
D03*
X1177000Y814000D02*
D03*
X1182500Y803000D02*
D03*
X1177000Y792000D02*
D03*
Y770000D02*
D03*
Y660000D02*
D03*
X1182500Y649000D02*
D03*
X1177000Y638000D02*
D03*
X1182500Y627000D02*
D03*
X1177000Y616000D02*
D03*
X1182500Y605000D02*
D03*
X1171500Y803000D02*
D03*
X1166000Y792000D02*
D03*
X1171500Y781000D02*
D03*
X1166000Y770000D02*
D03*
Y660000D02*
D03*
X1171500Y649000D02*
D03*
X1166000Y638000D02*
D03*
X1171500Y627000D02*
D03*
X1166000Y616000D02*
D03*
X1171500Y605000D02*
D03*
X1160500Y803000D02*
D03*
X1155000Y792000D02*
D03*
X1160500Y781000D02*
D03*
X1155000Y770000D02*
D03*
X1160500Y671000D02*
D03*
X1155000Y660000D02*
D03*
X1160500Y649000D02*
D03*
X1155000Y638000D02*
D03*
X1160500Y627000D02*
D03*
X1155000Y616000D02*
D03*
X1149500Y803000D02*
D03*
X1144000Y792000D02*
D03*
X1149500Y781000D02*
D03*
X1144000Y770000D02*
D03*
X1149500Y649000D02*
D03*
X1144000Y638000D02*
D03*
X1149500Y627000D02*
D03*
X1144000Y616000D02*
D03*
X1138500Y781000D02*
D03*
X1133000Y770000D02*
D03*
X1138500Y649000D02*
D03*
X1133000Y638000D02*
D03*
X1138500Y627000D02*
D03*
X1127500Y781000D02*
D03*
X1122000Y770000D02*
D03*
Y748000D02*
D03*
Y682000D02*
D03*
X1127500Y671000D02*
D03*
Y649000D02*
D03*
X1122000Y638000D02*
D03*
X1111000Y770000D02*
D03*
X1116500Y759000D02*
D03*
X1111000Y748000D02*
D03*
Y726000D02*
D03*
Y682000D02*
D03*
X1116500Y671000D02*
D03*
Y649000D02*
D03*
X1163174Y751274D02*
D03*
X1134700Y752200D02*
D03*
D44*
X1095000Y638938D02*
D03*
X1154000Y714372D02*
D03*
X1150000Y714345D02*
D03*
M02*
