G04*
G04 #@! TF.GenerationSoftware,Altium Limited,Altium Designer,21.3.2 (30)*
G04*
G04 Layer_Physical_Order=2*
G04 Layer_Color=16711680*
%FSLAX44Y44*%
%MOMM*%
G71*
G04*
G04 #@! TF.SameCoordinates,63FCB1AE-FA75-410F-B4B2-0E9A8DB9BD7B*
G04*
G04*
G04 #@! TF.FilePolarity,Positive*
G04*
G01*
G75*
%ADD39C,0.1000*%
%ADD40C,1.9500*%
%ADD41R,1.8000X1.8000*%
%ADD42C,1.8000*%
%ADD43C,0.5000*%
%ADD44C,0.3000*%
G36*
X1224973Y825452D02*
X1228515Y824986D01*
Y766125D01*
Y647175D01*
Y591846D01*
X1222373Y591037D01*
X1212090Y590588D01*
X1201807Y591037D01*
X1191602Y592381D01*
X1181554Y594608D01*
X1171738Y597704D01*
X1162228Y601642D01*
X1153099Y606395D01*
X1144418Y611925D01*
X1136252Y618191D01*
X1128664Y625145D01*
X1121710Y632733D01*
X1116753Y639194D01*
X1116753Y639194D01*
X1116347Y639647D01*
X1115855Y639976D01*
X1115087Y640489D01*
X1113600Y640785D01*
X1112995Y640696D01*
X1112276Y640625D01*
X1111758Y640468D01*
X1108738Y639552D01*
X1105477Y637809D01*
X1102619Y635463D01*
X1101386Y633961D01*
X1089290D01*
Y644610D01*
X1103200D01*
X1104191Y644807D01*
X1105031Y645369D01*
X1105593Y646209D01*
X1105790Y647200D01*
Y775027D01*
X1106938Y775570D01*
X1107619Y775010D01*
X1110507Y773467D01*
X1113597Y772529D01*
X1113612Y772604D01*
X1114366Y772454D01*
X1115852Y772750D01*
X1117113Y773592D01*
X1117955Y774852D01*
X1118025Y775203D01*
X1118366Y775740D01*
X1124613Y783881D01*
X1131546Y791447D01*
X1139112Y798380D01*
X1147253Y804627D01*
X1155908Y810140D01*
X1165010Y814879D01*
X1174490Y818806D01*
X1184277Y821891D01*
X1194296Y824112D01*
X1204470Y825452D01*
X1214722Y825899D01*
X1224973Y825452D01*
D02*
G37*
%LPC*%
G36*
X1207618Y823409D02*
X1204382D01*
X1201256Y822571D01*
X1198454Y820954D01*
X1196166Y818665D01*
X1194548Y815863D01*
X1193710Y812737D01*
Y809501D01*
X1194548Y806375D01*
X1195797Y804212D01*
X1185095Y793511D01*
X1184423Y792505D01*
X1184187Y791319D01*
Y756600D01*
X1168454D01*
X1167779Y757275D01*
X1166069Y758263D01*
X1164161Y758774D01*
X1162186D01*
X1160279Y758263D01*
X1158569Y757275D01*
X1157893Y756600D01*
X1140820D01*
X1140702Y756805D01*
X1139305Y758202D01*
X1137595Y759189D01*
X1135687Y759700D01*
X1133713D01*
X1131805Y759189D01*
X1130095Y758202D01*
X1128699Y756805D01*
X1127711Y755095D01*
X1127200Y753187D01*
Y751213D01*
X1127711Y749305D01*
X1128699Y747595D01*
X1130095Y746199D01*
X1131805Y745211D01*
X1133713Y744700D01*
X1135687D01*
X1137595Y745211D01*
X1139305Y746199D01*
X1140702Y747595D01*
X1141689Y749305D01*
X1141982Y750400D01*
X1155674D01*
Y750286D01*
X1156185Y748379D01*
X1157172Y746669D01*
X1158569Y745272D01*
X1160279Y744285D01*
X1162186Y743774D01*
X1164161D01*
X1166069Y744285D01*
X1167779Y745272D01*
X1169175Y746669D01*
X1170163Y748379D01*
X1170674Y750286D01*
Y750400D01*
X1186003D01*
X1193345Y743058D01*
X1192644Y741844D01*
X1191857Y738909D01*
Y735870D01*
X1192644Y732935D01*
X1194163Y730304D01*
X1196312Y728155D01*
X1198943Y726636D01*
X1201878Y725850D01*
X1204917D01*
X1207852Y726636D01*
X1210483Y728155D01*
X1212632Y730304D01*
X1214151Y732935D01*
X1214937Y735870D01*
Y738909D01*
X1214151Y741844D01*
X1212632Y744475D01*
X1210483Y746624D01*
X1207852Y748143D01*
X1204917Y748930D01*
X1201878D01*
X1198943Y748143D01*
X1197729Y747442D01*
X1190387Y754784D01*
Y790035D01*
X1200471Y800120D01*
X1201256Y799667D01*
X1204382Y798829D01*
X1207618D01*
X1210744Y799667D01*
X1213546Y801285D01*
X1215834Y803573D01*
X1217452Y806375D01*
X1218290Y809501D01*
Y812737D01*
X1217452Y815863D01*
X1215834Y818665D01*
X1213546Y820954D01*
X1210744Y822571D01*
X1207618Y823409D01*
D02*
G37*
G36*
X1204917Y774330D02*
X1204667D01*
Y764060D01*
X1214937D01*
Y764309D01*
X1214151Y767244D01*
X1212632Y769875D01*
X1210483Y772024D01*
X1207852Y773543D01*
X1204917Y774330D01*
D02*
G37*
G36*
X1202127D02*
X1201878D01*
X1198943Y773543D01*
X1196312Y772024D01*
X1194163Y769875D01*
X1192644Y767244D01*
X1191857Y764309D01*
Y764060D01*
X1202127D01*
Y774330D01*
D02*
G37*
G36*
X1214937Y761520D02*
X1204667D01*
Y751250D01*
X1204917D01*
X1207852Y752036D01*
X1210483Y753555D01*
X1212632Y755704D01*
X1214151Y758335D01*
X1214937Y761270D01*
Y761520D01*
D02*
G37*
G36*
X1202127D02*
X1191857D01*
Y761270D01*
X1192644Y758335D01*
X1194163Y755704D01*
X1196312Y753555D01*
X1198943Y752036D01*
X1201878Y751250D01*
X1202127D01*
Y761520D01*
D02*
G37*
G36*
X1204917Y723530D02*
X1201878D01*
X1198943Y722743D01*
X1196312Y721224D01*
X1194163Y719075D01*
X1192644Y716444D01*
X1191857Y713509D01*
Y710470D01*
X1192644Y707535D01*
X1194163Y704904D01*
X1196312Y702755D01*
X1198943Y701236D01*
X1201878Y700450D01*
X1204917D01*
X1207852Y701236D01*
X1210483Y702755D01*
X1212632Y704904D01*
X1214151Y707535D01*
X1214937Y710470D01*
Y713509D01*
X1214151Y716444D01*
X1212632Y719075D01*
X1210483Y721224D01*
X1207852Y722743D01*
X1204917Y723530D01*
D02*
G37*
G36*
X1204917Y698130D02*
X1201878D01*
X1198943Y697343D01*
X1196312Y695824D01*
X1194163Y693675D01*
X1192644Y691044D01*
X1191857Y688109D01*
Y685070D01*
X1192644Y682135D01*
X1194163Y679504D01*
X1196312Y677355D01*
X1198943Y675836D01*
X1201878Y675050D01*
X1204917D01*
X1207852Y675836D01*
X1210483Y677355D01*
X1212632Y679504D01*
X1214151Y682135D01*
X1214937Y685070D01*
Y688109D01*
X1214151Y691044D01*
X1212632Y693675D01*
X1210483Y695824D01*
X1207852Y697343D01*
X1204917Y698130D01*
D02*
G37*
G36*
X1214937Y672729D02*
X1191857D01*
Y649650D01*
X1214937D01*
Y672729D01*
D02*
G37*
G36*
X1207618Y618409D02*
X1207270D01*
Y607389D01*
X1218290D01*
Y607737D01*
X1217452Y610863D01*
X1215834Y613665D01*
X1213546Y615953D01*
X1210744Y617571D01*
X1207618Y618409D01*
D02*
G37*
G36*
X1204730D02*
X1204382D01*
X1201256Y617571D01*
X1198454Y615953D01*
X1196166Y613665D01*
X1194548Y610863D01*
X1193710Y607737D01*
Y607389D01*
X1204730D01*
Y618409D01*
D02*
G37*
G36*
X1218290Y604849D02*
X1207270D01*
Y593829D01*
X1207618D01*
X1210744Y594667D01*
X1213546Y596285D01*
X1215834Y598573D01*
X1217452Y601375D01*
X1218290Y604501D01*
Y604849D01*
D02*
G37*
G36*
X1204730D02*
X1193710D01*
Y604501D01*
X1194548Y601375D01*
X1196166Y598573D01*
X1198454Y596285D01*
X1201256Y594667D01*
X1204382Y593829D01*
X1204730D01*
Y604849D01*
D02*
G37*
%LPD*%
D39*
X1204740Y808772D02*
X1206000D01*
X1134500Y752100D02*
X1135900Y753500D01*
X1165300D01*
X1187287Y791319D02*
X1204740Y808772D01*
X1187287Y753500D02*
Y791319D01*
X1163600Y751800D02*
X1165300Y753500D01*
X1187287D01*
X1203397Y737390D01*
D40*
X1206000Y606119D02*
D03*
Y811119D02*
D03*
D41*
X1203397Y661190D02*
D03*
D42*
Y762790D02*
D03*
X1203397Y737390D02*
D03*
X1203397Y711990D02*
D03*
X1203397Y686590D02*
D03*
D43*
X1221000Y814000D02*
D03*
Y792000D02*
D03*
Y770000D02*
D03*
Y748000D02*
D03*
Y726000D02*
D03*
Y704000D02*
D03*
Y682000D02*
D03*
Y660000D02*
D03*
Y638000D02*
D03*
Y616000D02*
D03*
Y594000D02*
D03*
X1210000Y792000D02*
D03*
X1215500Y781000D02*
D03*
X1210000Y638000D02*
D03*
X1215500Y627000D02*
D03*
X1199000Y792000D02*
D03*
X1204500Y781000D02*
D03*
X1199000Y638000D02*
D03*
X1204500Y627000D02*
D03*
X1188000Y814000D02*
D03*
X1193500Y781000D02*
D03*
X1188000Y726000D02*
D03*
Y638000D02*
D03*
X1193500Y627000D02*
D03*
X1188000Y616000D02*
D03*
X1177000Y814000D02*
D03*
X1182500Y803000D02*
D03*
X1177000Y792000D02*
D03*
Y770000D02*
D03*
Y660000D02*
D03*
X1182500Y649000D02*
D03*
X1177000Y638000D02*
D03*
X1182500Y627000D02*
D03*
X1177000Y616000D02*
D03*
X1182500Y605000D02*
D03*
X1171500Y803000D02*
D03*
X1166000Y792000D02*
D03*
X1171500Y781000D02*
D03*
X1166000Y770000D02*
D03*
Y660000D02*
D03*
X1171500Y649000D02*
D03*
X1166000Y638000D02*
D03*
X1171500Y627000D02*
D03*
X1166000Y616000D02*
D03*
X1171500Y605000D02*
D03*
X1160500Y803000D02*
D03*
X1155000Y792000D02*
D03*
X1160500Y781000D02*
D03*
X1155000Y770000D02*
D03*
X1160500Y671000D02*
D03*
X1155000Y660000D02*
D03*
X1160500Y649000D02*
D03*
X1155000Y638000D02*
D03*
X1160500Y627000D02*
D03*
X1155000Y616000D02*
D03*
X1149500Y803000D02*
D03*
X1144000Y792000D02*
D03*
X1149500Y781000D02*
D03*
X1144000Y770000D02*
D03*
X1149500Y649000D02*
D03*
X1144000Y638000D02*
D03*
X1149500Y627000D02*
D03*
X1144000Y616000D02*
D03*
X1138500Y781000D02*
D03*
X1133000Y770000D02*
D03*
X1138500Y649000D02*
D03*
X1133000Y638000D02*
D03*
X1138500Y627000D02*
D03*
X1127500Y781000D02*
D03*
X1122000Y770000D02*
D03*
Y748000D02*
D03*
Y682000D02*
D03*
X1127500Y671000D02*
D03*
Y649000D02*
D03*
X1122000Y638000D02*
D03*
X1111000Y770000D02*
D03*
X1116500Y759000D02*
D03*
X1111000Y748000D02*
D03*
Y726000D02*
D03*
Y682000D02*
D03*
X1116500Y671000D02*
D03*
Y649000D02*
D03*
X1163174Y751274D02*
D03*
X1134700Y752200D02*
D03*
D44*
X1095000Y638938D02*
D03*
X1154000Y714372D02*
D03*
X1150000Y714345D02*
D03*
M02*
